<svg width="305" height="305" viewBox="0 0 305 305" fill="none" xmlns="http://www.w3.org/2000/svg">
    <path d="M57.2727 0.136353C42.1192 0.136353 27.5864 6.15606 16.8712 16.8712C6.15606 27.5864 0.136353 42.1192 0.136353 57.2727C0.136353 72.4262 6.15606 86.9591 16.8712 97.6742C27.5864 108.389 42.1192 114.409 57.2727 114.409C64.3515 114.387 71.3646 113.05 77.9549 110.466C88.2255 126.101 95.3636 141.747 95.3636 152.5C95.3636 163.234 88.2702 178.868 78.0293 194.497C71.4133 191.916 64.3742 190.592 57.2727 190.591C42.1192 190.591 27.5864 196.611 16.8712 207.326C6.15606 218.041 0.136353 232.574 0.136353 247.727C0.136353 262.881 6.15606 277.414 16.8712 288.129C27.5864 298.844 42.1192 304.864 57.2727 304.864C72.4262 304.864 86.9591 298.844 97.6742 288.129C108.389 277.414 114.409 262.881 114.409 247.727C114.385 240.688 113.061 233.714 110.503 227.157C126.184 216.826 141.826 209.636 152.5 209.636C163.156 209.636 178.747 216.784 194.422 227.082C191.881 233.668 190.582 240.668 190.591 247.727C190.591 262.881 196.611 277.414 207.326 288.129C218.041 298.844 232.574 304.864 247.727 304.864C262.881 304.864 277.414 298.844 288.129 288.129C298.844 277.414 304.864 262.881 304.864 247.727C304.864 232.574 298.844 218.041 288.129 207.326C277.414 196.611 262.881 190.591 247.727 190.591C240.648 190.613 233.635 191.95 227.045 194.534C216.774 178.899 209.636 163.253 209.636 152.5C209.636 141.766 216.73 126.132 226.971 110.503C226.983 110.516 226.996 110.528 227.009 110.54C233.615 113.104 240.641 114.415 247.727 114.409C262.881 114.409 277.414 108.389 288.129 97.6742C298.844 86.9591 304.864 72.4262 304.864 57.2727C304.864 42.1192 298.844 27.5864 288.129 16.8712C277.414 6.15606 262.881 0.136353 247.727 0.136353C232.574 0.136353 218.041 6.15606 207.326 16.8712C196.611 27.5864 190.591 42.1192 190.591 57.2727C190.615 64.3116 191.939 71.2856 194.497 77.8433C178.816 88.1744 163.174 95.3636 152.5 95.3636C141.844 95.3636 126.253 88.2157 110.578 77.9177C113.119 71.3318 114.418 64.332 114.409 57.2727C114.409 42.1192 108.389 27.5864 97.6742 16.8712C86.9591 6.15606 72.4262 0.136353 57.2727 0.136353ZM57.2727 19.1818C67.3751 19.1818 77.0636 23.1949 84.2071 30.3384C91.3505 37.4818 95.3636 47.1704 95.3636 57.2727C95.3591 60.1783 95.0221 63.0737 94.3593 65.9027C85.6404 58.8781 77.3591 51.4488 70.7384 43.807C67.2314 40.2982 62.4936 38.2963 57.5331 38.2273C54.9884 38.1931 52.4627 38.6692 50.1052 39.6276C47.7476 40.5859 45.6061 42.0071 43.807 43.807C40.2361 47.3786 38.2301 52.2223 38.2301 57.2727C38.2301 62.3232 40.2361 67.1668 43.807 70.7384C44.1649 71.1004 44.5372 71.4479 44.9229 71.78C52.2071 78.1371 59.3055 86.0191 66.0143 94.3221C63.1505 95.0059 60.217 95.3555 57.2727 95.3636C47.1704 95.3636 37.4818 91.3505 30.3384 84.2071C23.1949 77.0636 19.1818 67.3751 19.1818 57.2727C19.1818 47.1704 23.1949 37.4818 30.3384 30.3384C37.4818 23.1949 47.1704 19.1818 57.2727 19.1818ZM247.727 19.1818C257.83 19.1818 267.518 23.1949 274.662 30.3384C281.805 37.4818 285.818 47.1704 285.818 57.2727C285.818 67.3751 281.805 77.0636 274.662 84.2071C267.518 91.3505 257.83 95.3636 247.727 95.3636C244.795 95.3526 241.875 95.0031 239.023 94.3221C246.079 85.5764 253.535 77.2731 261.193 70.7385C264.764 67.1669 266.77 62.3232 266.77 57.2727C266.77 52.2223 264.764 47.3786 261.193 43.807C257.621 40.2362 252.778 38.2301 247.727 38.2301C242.677 38.2301 237.833 40.2362 234.262 43.807C233.914 44.1413 233.579 44.4888 233.257 44.8485C226.827 52.1208 218.96 59.2152 210.678 65.9027C210.003 63.0752 209.653 60.1797 209.636 57.2727C209.636 47.1704 213.649 37.4818 220.793 30.3384C227.936 23.1949 237.625 19.1818 247.727 19.1818ZM57.2727 209.636C60.2046 209.647 63.1254 209.997 65.9771 210.678C58.9205 219.424 51.4654 227.727 43.807 234.262C40.2361 237.833 38.2301 242.677 38.2301 247.727C38.2301 252.778 40.2361 257.621 43.807 261.193C47.3786 264.764 52.2223 266.77 57.2727 266.77C62.3232 266.77 67.1668 264.764 70.7384 261.193C71.0863 260.859 71.4213 260.511 71.7428 260.151C78.173 252.879 86.0403 245.785 94.3221 239.097C94.9974 241.925 95.3469 244.82 95.3636 247.727C95.3636 257.83 91.3505 267.518 84.2071 274.662C77.0636 281.805 67.3751 285.818 57.2727 285.818C47.1704 285.818 37.4818 281.805 30.3384 274.662C23.1949 267.518 19.1818 257.83 19.1818 247.727C19.1818 237.625 23.1949 227.936 30.3384 220.793C37.4818 213.649 47.1704 209.636 57.2727 209.636ZM247.727 209.636C257.83 209.636 267.518 213.649 274.662 220.793C281.805 227.936 285.818 237.625 285.818 247.727C285.818 257.83 281.805 267.518 274.662 274.662C267.518 281.805 257.83 285.818 247.727 285.818C237.625 285.818 227.936 281.805 220.793 274.662C213.649 267.518 209.636 257.83 209.636 247.727C209.641 244.822 209.978 241.926 210.641 239.097C219.359 246.122 227.641 253.551 234.261 261.193C237.833 264.764 242.677 266.77 247.727 266.77C252.778 266.77 257.621 264.764 261.193 261.193C264.764 257.621 266.77 252.778 266.77 247.727C266.77 242.677 264.764 237.833 261.193 234.262C260.866 233.983 260.553 233.616 260.226 233.332C260.176 233.294 260.127 233.256 260.077 233.219C252.793 226.863 245.695 218.981 238.986 210.678C241.849 209.994 244.783 209.645 247.727 209.636Z"
          fill="currentColor"/>
</svg>
