<svg width="21" height="20" viewBox="0 0 21 20" fill="none" xmlns="http://www.w3.org/2000/svg">
<path d="M10.7499 4.84131C11.3071 4.84131 11.7588 5.29304 11.7588 5.85027V8.99098H14.8998C15.457 8.99098 15.9088 9.44278 15.9088 9.99998C15.9088 10.5572 15.457 11.009 14.8998 11.009H11.7588V14.1497C11.7588 14.7069 11.3071 15.1587 10.7499 15.1587C10.1926 15.1587 9.7409 14.7069 9.7409 14.1497V11.009H6.60038C6.04314 11.009 5.59141 10.5572 5.59141 9.99998C5.59141 9.44278 6.04314 8.99098 6.60038 8.99098H9.7409V5.85027C9.7409 5.29304 10.1926 4.84131 10.7499 4.84131Z" fill="white"/>
<path fill-rule="evenodd" clip-rule="evenodd" d="M5.90867 0C3.05962 0 0.75 2.30962 0.75 5.15867V14.8413C0.75 17.6904 3.05962 20 5.90867 20H15.5913C18.4404 20 20.75 17.6904 20.75 14.8413V5.15867C20.75 2.30962 18.4404 0 15.5913 0H5.90867ZM2.76793 5.15867C2.76793 3.42409 4.17409 2.01793 5.90867 2.01793H15.5913C17.3259 2.01793 18.7321 3.42409 18.7321 5.15867V14.8413C18.7321 16.5759 17.3259 17.9821 15.5913 17.9821H5.90867C4.17409 17.9821 2.76793 16.5759 2.76793 14.8413V5.15867Z" fill="white"/>
</svg>
