<svg width="20" height="20" viewBox="0 0 20 20" fill="none" xmlns="http://www.w3.org/2000/svg">
<path fill-rule="evenodd" clip-rule="evenodd" d="M16.6667 2H3.33333C2.59695 2 2 2.59695 2 3.33333V16.6667C2 17.403 2.59695 18 3.33333 18H16.6667C17.403 18 18 17.403 18 16.6667V3.33333C18 2.59695 17.403 2 16.6667 2ZM3.33333 0C1.49238 0 0 1.49238 0 3.33333V16.6667C0 18.5076 1.49238 20 3.33333 20H16.6667C18.5076 20 20 18.5076 20 16.6667V3.33333C20 1.49238 18.5076 0 16.6667 0H3.33333Z" fill="white"/>
<path d="M16.262 10.9705V15.6133H13.5703V11.2813C13.5703 10.1928 13.1808 9.4503 12.2068 9.4503C11.4631 9.4503 11.0201 9.9512 10.8257 10.435C10.7546 10.608 10.7364 10.849 10.7364 11.0913V15.6133H8.04339C8.04339 15.6133 8.07989 8.2769 8.04339 7.51618H10.7364V8.6638L10.7188 8.6903H10.7364V8.6638C11.0938 8.1133 11.7324 7.32616 13.1626 7.32616C14.9337 7.32616 16.262 8.4839 16.262 10.9705ZM5.22714 3.61328C4.30663 3.61328 3.70386 4.21731 3.70386 5.01198C3.70386 5.78904 4.28901 6.41131 5.19191 6.41131H5.20953C6.14891 6.41131 6.73218 5.78904 6.73218 5.01198C6.71582 4.21731 6.14891 3.61328 5.22714 3.61328ZM3.86368 15.6133H6.55537V7.51618H3.86368V15.6133Z" fill="white"/>
</svg>
